<svg width="603" height="28" viewBox="0 0 603 28" fill="none" xmlns="http://www.w3.org/2000/svg">
<path d="M0 27.5994V0.400572H11.7364C16.3183 0.400572 19.6233 3.42489 19.6233 7.83119C19.6233 9.65379 18.6844 12.4578 16.2057 13.4592C19.0412 14.6009 20.4871 17.1845 20.4871 20.0486C20.4871 24.495 17.276 27.5994 12.5627 27.5994H0ZM10.8726 5.04721H5.07014V11.6967H11.0604C13.1448 11.6967 14.3842 10.2947 14.3842 8.43205C14.3842 6.28898 12.8819 5.04721 10.8726 5.04721ZM11.7364 15.9628H5.07014V22.9728H11.7364C13.7645 22.9728 15.0977 21.5908 15.0977 19.628C15.0977 17.3848 13.7833 15.9628 11.7364 15.9628Z" fill="white"/>
<path d="M43.6978 27.5994V0.400572H61.8376V5.08727H48.768V11.3562H60.11V16.0429H48.768V22.9328H62.1193V27.5994H43.6978Z" fill="white"/>
<path d="M114.343 27.5994H108.935L119.226 0.400572H125.047L135.356 27.5994H129.948L128.07 22.2718H116.24L114.343 27.5994ZM117.667 17.9657H126.605L122.155 6.04864L117.667 17.9657Z" fill="white"/>
<path d="M175.862 22.9328V27.5994H157.065V0.400572H162.135V22.9328H175.862Z" fill="white"/>
<path d="M192.8 0.400572H197.889L203.542 22.2117L209.269 0.821173H213.832L219.559 22.2117L225.212 0.400572H230.301L223.315 27.5994H216.217L211.541 10.0744L206.884 27.5994H199.786L192.8 0.400572Z" fill="white"/>
<path d="M253.399 27.5994H247.991L258.281 0.400572H264.102L274.412 27.5994H269.003L267.126 22.2718H255.295L253.399 27.5994ZM256.722 17.9657H265.661L261.21 6.04864L256.722 17.9657Z" fill="white"/>
<path d="M290.13 0.400572H296.176L302.58 11.8369L309.058 0.400572H314.917L305.077 17.3247V27.5994H300.026V17.3247L290.13 0.400572Z" fill="white"/>
<path d="M334.447 21.5708L338.184 18.6867C339.386 21.3104 341.677 23.113 344.738 23.113C347.179 23.113 349.113 21.8512 349.113 20.0887C349.113 18.2861 347.216 17.3247 344.174 16.3033C339.273 14.6609 335.273 13.0587 335.273 7.81116C335.273 2.68383 339.987 0 344.306 0C348.925 0 352.118 2.88412 353.732 5.90844L349.827 8.87267C348.719 6.88984 346.878 4.88698 344.174 4.88698C342.203 4.88698 340.456 6.00858 340.456 7.79113C340.456 9.97425 342.315 10.2947 345.508 11.4964C350.296 13.299 354.277 14.681 354.277 20.0486C354.277 25.3763 349.226 28 344.681 28C339.761 28 335.968 25.2561 334.447 21.5708Z" fill="white"/>
<path d="M410.407 27.5794H405.318V0.400572H416.566C422.106 0.400572 425.692 3.92561 425.692 9.13305C425.692 12.598 423.909 15.4421 420.942 16.804L426.706 27.5994H421.148L415.947 17.7053H410.407V27.5794ZM410.407 5.08727V13.0186H416.247C419.045 13.0186 420.491 11.196 420.491 9.13305C420.491 6.86981 419.045 5.08727 416.247 5.08727H410.407Z" fill="white"/>
<path d="M449.316 27.5994V0.400572H467.456V5.08727H454.386V11.3562H465.729V16.0429H454.386V22.9328H467.738V27.5994H449.316Z" fill="white"/>
<path d="M493.202 27.5994H487.794L498.084 0.400572H503.905L514.215 27.5994H508.807L506.929 22.2718H495.098L493.202 27.5994ZM496.526 17.9657H505.464L501.014 6.04864L496.526 17.9657Z" fill="white"/>
<path d="M535.923 27.6195V0.420601H546.477C554.044 0.420601 559.64 6.24893 559.64 14.02C559.64 21.8312 554.044 27.6195 546.477 27.6195H535.923ZM540.993 5.06724V22.9528H546.326C551.171 22.9528 554.457 19.0672 554.457 14.02C554.457 9.01288 551.171 5.06724 546.326 5.06724H540.993Z" fill="white"/>
<path d="M578.213 0.400572H584.259L590.663 11.8369L597.141 0.400572H603L593.16 17.3247V27.5994H588.109V17.3247L578.213 0.400572Z" fill="white"/>
</svg>
