<svg width="125" height="65" viewBox="0 0 125 65" fill="none" xmlns="http://www.w3.org/2000/svg">
<g clip-path="url(#clip0_40_169)">
<path d="M65.7742 0V22.5538H64.8777V0H60.0255V27.5188H70.6154H70.6285V0H65.7742Z" fill="currentColor"/>
<path d="M59.1399 28.4429V0H54.2877V33.4078H70.6285V28.4429H59.1399Z" fill="currentColor"/>
</g>
<path d="M7.34979 52.1862V53.5955H0V43.5754H1.57602V52.1862H7.34979Z" fill="currentColor"/>
<path d="M16.7384 53.743C14.1391 53.743 12.4734 52.2673 12.4734 49.9726V43.5754H14.027V49.9062C14.027 51.3745 15.0877 52.3042 16.7384 52.3042C18.3891 52.3042 19.4423 51.3745 19.4423 49.9062V43.5754H20.9959V49.9726C20.9959 52.2673 19.3377 53.743 16.7384 53.743Z" fill="currentColor"/>
<path d="M35.2915 53.5955V43.5754H37.1514L40.6545 50.7031L44.1651 43.5754H46.0175V53.5955H44.434V46.4162L41.2147 52.8871H40.0943L36.875 46.4162V53.5955H35.2915Z" fill="currentColor"/>
<path d="M53.2101 53.5955H51.537L55.7273 43.5754H57.4303L61.6205 53.5955H59.9474L59.1407 51.5073H54.0168L53.2101 53.5955ZM54.4873 50.2161H58.6702L56.5788 45.3094L54.4873 50.2161Z" fill="currentColor"/>
<path d="M67.14 53.5955V43.5754H68.7086V48.5559L73.3545 43.5754H75.3787L71.5693 47.6631L75.6326 53.5955H73.7205L70.4639 48.7109L68.7086 50.5777V53.5955H67.14Z" fill="currentColor"/>
<path d="M81.055 53.5955V43.5754H88.1658V44.9847H82.6236V47.7443H87.3815V49.1536H82.6236V52.1862H88.3227V53.5955H81.055Z" fill="currentColor"/>
<path d="M106.211 53.743C103.612 53.743 101.946 52.2673 101.946 49.9726V43.5754H103.5V49.9062C103.5 51.3745 104.56 52.3042 106.211 52.3042C107.862 52.3042 108.915 51.3745 108.915 49.9062V43.5754H110.469V49.9726C110.469 52.2673 108.81 53.743 106.211 53.743Z" fill="currentColor"/>
<path d="M118.692 53.5955H117.123V43.5828H121.291C123.383 43.5828 124.735 44.8593 124.735 46.7187C124.735 48.5559 123.383 49.8619 121.291 49.8619H118.692V53.5955ZM118.692 44.9921V48.4453H121.224C122.456 48.4453 123.099 47.6779 123.099 46.7187C123.099 45.7447 122.456 44.9921 121.224 44.9921H118.692Z" fill="currentColor"/>
<path d="M21.7877 64.9481V61.4207H23.3709C23.989 61.4207 24.4348 61.8129 24.4348 62.3844C24.4348 62.6208 24.3081 62.9844 23.9738 63.1143C24.3563 63.2623 24.5513 63.5974 24.5513 63.9689C24.5513 64.5455 24.1181 64.9481 23.4823 64.9481H21.7877ZM23.2544 62.0233H22.4716V62.8857H23.2797C23.5609 62.8857 23.728 62.7039 23.728 62.4623C23.728 62.1844 23.5254 62.0233 23.2544 62.0233ZM23.3709 63.439H22.4716V64.3481H23.3709C23.6445 64.3481 23.8243 64.1689 23.8243 63.9143C23.8243 63.6234 23.647 63.439 23.3709 63.439Z" fill="currentColor"/>
<path d="M27.6823 64.9481V61.4207H30.1292V62.0285H28.3662V62.8415H29.8962V63.4494H28.3662V64.3429H30.1672V64.9481H27.6823Z" fill="currentColor"/>
<path d="M37.2119 64.9481H36.4824L37.8705 61.4207H38.6557L40.0464 64.9481H39.3169L39.0635 64.2572H37.4677L37.2119 64.9481ZM37.6602 63.6987H38.866L38.2656 62.1532L37.6602 63.6987Z" fill="currentColor"/>
<path d="M45.5103 64.3429V64.9481H42.9747V61.4207H43.6586V64.3429H45.5103Z" fill="currentColor"/>
<path d="M47.7952 61.4207H48.4817L49.2442 64.2494L50.0167 61.4753H50.6323L51.4049 64.2494L52.1673 61.4207H52.8538L51.9115 64.9481H50.954L50.3232 62.6753L49.695 64.9481H48.7375L47.7952 61.4207Z" fill="currentColor"/>
<path d="M55.9696 64.9481H55.24L56.6281 61.4207H57.4134L58.8041 64.9481H58.0745L57.8212 64.2572H56.2254L55.9696 64.9481ZM56.4179 63.6987H57.6236L57.0233 62.1532L56.4179 63.6987Z" fill="currentColor"/>
<path d="M60.9243 61.4207H61.74L62.6038 62.9039L63.4777 61.4207H64.268L62.9407 63.6156V64.9481H62.2593V63.6156L60.9243 61.4207Z" fill="currentColor"/>
<path d="M66.9025 64.1663L67.4065 63.7922C67.5687 64.1325 67.8777 64.3663 68.2906 64.3663C68.6199 64.3663 68.8808 64.2026 68.8808 63.9741C68.8808 63.7403 68.625 63.6156 68.2146 63.4831C67.5535 63.2701 67.0139 63.0623 67.0139 62.3818C67.0139 61.7168 67.6497 61.3688 68.2323 61.3688C68.8555 61.3688 69.2861 61.7428 69.5039 62.135L68.977 62.5195C68.8276 62.2623 68.5794 62.0026 68.2146 62.0026C67.9486 62.0026 67.713 62.148 67.713 62.3792C67.713 62.6623 67.9638 62.7039 68.3944 62.8597C69.0404 63.0935 69.5774 63.2727 69.5774 63.9689C69.5774 64.6598 68.896 65.0001 68.283 65.0001C67.6193 65.0001 67.1076 64.6442 66.9025 64.1663Z" fill="currentColor"/>
<path d="M77.1489 64.9455H76.4625V61.4207H77.9798C78.727 61.4207 79.2109 61.8779 79.2109 62.5532C79.2109 63.0026 78.9702 63.3714 78.57 63.5481L79.3476 64.9481H78.5979L77.8962 63.665H77.1489V64.9455ZM77.1489 62.0285V63.0571H77.9367C78.3141 63.0571 78.5092 62.8208 78.5092 62.5532C78.5092 62.2597 78.3141 62.0285 77.9367 62.0285H77.1489Z" fill="currentColor"/>
<path d="M82.3976 64.9481V61.4207H84.8445V62.0285H83.0815V62.8415H84.6115V63.4494H83.0815V64.3429H84.8825V64.9481H82.3976Z" fill="currentColor"/>
<path d="M88.3174 64.9481H87.5879L88.976 61.4207H89.7613L91.1519 64.9481H90.4224L90.1691 64.2572H88.5733L88.3174 64.9481ZM88.7658 63.6987H89.9715L89.3712 62.1532L88.7658 63.6987Z" fill="currentColor"/>
<path d="M94.0803 64.9507V61.4233H95.5038C96.5247 61.4233 97.2795 62.1792 97.2795 63.187C97.2795 64.2 96.5247 64.9507 95.5038 64.9507H94.0803ZM94.7642 62.0259V64.3455H95.4836C96.1371 64.3455 96.5804 63.8416 96.5804 63.187C96.5804 62.5376 96.1371 62.0259 95.4836 62.0259H94.7642Z" fill="currentColor"/>
<path d="M99.7848 61.4207H100.6L101.464 62.9039L102.338 61.4207H103.128L101.801 63.6156V64.9481H101.12V63.6156L99.7848 61.4207Z" fill="currentColor"/>
<defs>
<clipPath id="clip0_40_169">
<rect width="16.3408" height="33.4078" fill="currentColor" transform="translate(54.2877)"/>
</clipPath>
</defs>
</svg>
